<?xml version="1.0" encoding="UTF-8"?>
<svg id="Layer_1" data-name="Layer 1" xmlns="http://www.w3.org/2000/svg" viewBox="0 0 880 64">
  <g>
    <g>
      <polygon points="350.36 31.54 374.34 4 362.23 4 344.22 24.66 327.05 4 315.1 4 337.83 30.8 312.77 60 324.89 60 343.97 37.77 362.56 60 374.51 60 350.36 31.54" style="fill: #03cfcb;"/>
      <path d="M96.62,5.82c-1.17,1.17-1.82,2.75-1.82,4.4v6.22h6.22c1.65,0,3.23-.66,4.4-1.82s1.82-2.75,1.82-4.4V4h-6.22c-1.65,0-3.23.66-4.4,1.82Z" style="fill: #03cfcb;"/>
    </g>
    <g>
      <path d="M94.8,41.42c0,5.56-2.9,8.8-9.21,8.8h-9.96c-6.47,0-9.29-3.24-9.29-8.8V4h-9.96v38.17c0,11.78,6.14,17.84,18.09,17.84h11.78c11.95,0,18.17-6.06,18.17-17.84v-22.61h-9.63v21.86Z" style="fill: #fff;"/>
      <path d="M294.69,4v44.31c0,1.91-1.24,3.15-3.32,3.15-1.83,0-2.9-1-3.57-2.32-5.45-11.92-10.9-23.84-16.35-35.76-2.32-6.39-5.81-10.37-13.61-10.37-8.71,0-12.86,4.9-12.86,12.2v44.81h9.79V15.7c0-1.99,1.16-3.24,3.4-3.24,1.74,0,2.74.75,3.49,2.41,5.45,11.92,10.9,23.84,16.35,35.76,2.32,6.39,5.89,10.37,13.69,10.37,8.63,0,12.86-4.9,12.86-12.28V4h-9.87Z" style="fill: #fff;"/>
      <path d="M206.23,3c-5.89,0-9.71,1.99-11.78,7.22-6.56,16.6-13.11,33.19-19.67,49.79h10.79c5.92-15.02,11.84-30.04,17.76-45.06.58-1.33,1.49-1.91,2.82-1.91s2.24.58,2.74,1.91c5.67,15.02,11.34,30.04,17.01,45.06h10.87c-6.31-16.6-12.61-33.19-18.92-49.79-1.99-5.23-5.81-7.22-11.62-7.22Z" style="fill: #fff;"/>
      <path d="M14.39,40.59V4H4.6v36.68c0,11.2,5.81,19.33,20.66,19.33h22.32v-9.79h-21.74c-8.8,0-11.45-4.23-11.45-9.63Z" style="fill: #fff;"/>
      <path d="M160.35,31.79c5.23-2.07,8.05-5.97,8.05-12.45,0-9.13-5.56-15.35-18.75-15.35h-24.64c-3.15,0-4.65,1.49-4.65,4.56v46.88c0,3.07,1.49,4.56,4.65,4.56h24.89c13.19,0,18.75-6.47,18.75-15.43,0-6.47-2.99-10.62-8.3-12.78ZM129.98,14.62c0-.66.41-1,1.08-1h18.92c5.97,0,8.55,2.9,8.55,7.3s-2.82,6.72-8.63,6.72h-19.91v-13.03ZM150.14,50.3h-19.08c-.66,0-1.08-.25-1.08-.91v-13.61h20.16c5.73,0,8.63,2.49,8.63,7.22s-2.74,7.3-8.63,7.3Z" style="fill: #fff;"/>
    </g>
  </g>
  <g>
    <path d="M397.73,26.89c1.26-.36,2.94-1.98,4.2-4.02.96-1.38,3.24-5.46,5.28-10.26h-8.76v-6.3h11.34l2.22-.9,4.32,2.88c-2.28,5.4-4.98,10.68-7.62,15.18h2.04l1.26-.18,4.02.96c-.78,8.76-2.34,16.02-4.68,21.78,5.52,4.68,13.02,5.7,21.9,5.76,3.42,0,15.9,0,20.04-.12-1.02,1.44-2.16,4.62-2.58,6.54h-17.7c-10.14,0-18.3-1.26-24.54-6.36-1.92,3.12-4.14,5.64-6.72,7.56-1.02-1.38-3.66-3.84-5.16-4.74,2.88-1.98,5.28-4.62,7.2-7.98-2.1-3.06-3.9-6.96-5.34-11.76l5.28-1.8c.78,2.76,1.8,5.1,2.88,7.08,1.02-3.06,1.8-6.6,2.34-10.5h-5.1c-1.38.72-3.3,1.92-3.3,2.7-.48-1.38-1.92-4.14-2.82-5.52ZM428.51,7.51V3.07h6.84v4.44h13.32v8.28h3.3v5.34h-3.3v8.46h-13.32v2.88h13.98v5.04h-13.98v3h15.9v5.46h-15.9v4.08h-6.84v-4.08h-13.14v-5.46h13.14v-3h-10.8v-5.04h10.8v-2.88h-10.44v-5.46h10.44v-3h-13.38v-5.34h13.38v-2.88h-10.14v-5.4h10.14ZM442.31,15.79v-2.88h-6.96v2.88h6.96ZM435.35,24.13h6.96v-3h-6.96v3Z" style="fill: #fff;"/>
    <path d="M473.03,4.27c-.48,1.44-1.08,2.94-1.68,4.38h13.62v6h-7.8c1.08,1.92,1.98,3.9,2.46,5.4l-6.12,2.76c-.6-2.16-2.1-5.46-3.54-8.16h-1.62c-1.86,3.3-3.96,6.24-6,8.52-1.38-1.14-4.32-3.06-6.06-3.96,4.2-3.96,7.86-10.38,9.9-16.68l6.84,1.74ZM465.59,43.26v-13.02h-6.96v-6.3h21.18v6.3h-7.2v11.64l6.72-1.38.6,6.12c-7.38,1.8-15.36,3.66-21.48,5.04l-1.38-6.78,8.52-1.62ZM505.67,23.35v26.64c0,1.14.06,1.8.18,2.04.12.18.36.24.66.24h.9c.3,0,.6-.06.78-.18.18-.12.36-.36.42-1.02.18-.72.24-2.16.3-3.96,1.26,1.02,3.42,2.16,5.28,2.76-.12,2.16-.42,4.5-.84,5.58-.48,1.02-1.2,1.8-2.22,2.28-.84.48-2.16.72-3.3.72h-3.36c-1.44,0-3.18-.48-4.14-1.56-1.14-1.08-1.62-2.4-1.62-6.84v-4.44l-3.96,2.76c-1.2-2.34-3.66-5.7-6.06-8.64-.42,7.08-2.7,14.88-11.16,19.56-1.02-1.44-3.66-4.08-5.04-5.1,8.46-4.56,9.36-11.22,9.36-17.22v-13.62h23.82ZM497.57,4.39c-.42,1.44-.9,2.88-1.44,4.26h16.2v6h-8.58c1.32,1.98,2.58,4.02,3.3,5.58l-6.48,2.46c-.78-2.16-2.64-5.4-4.44-8.04h-2.64c-1.62,3.24-3.48,6.12-5.4,8.34-1.32-1.14-4.32-3.06-6-3.96,3.78-3.9,6.9-10.02,8.52-16.26l6.96,1.62ZM488.75,36.54l3.54-2.28c2.16,2.16,4.62,4.98,6.42,7.5v-12.12h-9.96v6.9Z" style="fill: #fff;"/>
    <path d="M546.89,2.47c1.02,2.22,2.4,5.1,3.24,7.32h21.36v13.56h-7.5v-7.02h-38.1v8.22h-7.08v-14.76h22.44c-.6-1.74-1.32-3.66-2.04-5.22l7.68-2.1ZM542.69,23.11c-4.26,3.48-9.9,6.9-15.42,9.54h36.72v6.42h-15.3v11.76h22.5v6.54h-51.96v-6.54h21.78v-11.76h-14.4v-6.12l-3.3,1.5-4.08-6.54c6.6-2.04,13.26-5.34,18.48-9.24l4.98,4.44ZM552.11,18.61c5.64,2.58,14.46,6.66,19.02,9.24l-4.92,5.76c-4.14-2.64-12.72-7.14-18.72-10.08l4.62-4.92Z" style="fill: #fff;"/>
    <path d="M586.79,17.47v41.82h-7.44V17.47h7.44ZM585.89,3.43c2.76,2.64,6.06,6.36,7.44,9.06l-6.06,3.9c-1.26-2.64-4.32-6.6-7.08-9.48l5.7-3.48ZM617.62,19.87v28.74h-24.72v-28.74h24.72ZM631.36,6.01v45.6c0,3.36-.6,5.04-2.58,6.18-2.04,1.08-4.86,1.2-8.64,1.2-.3-1.86-1.2-4.68-2.04-6.42,1.86.12,4.14.06,4.8.06.78,0,1.02-.3,1.02-1.02V12.73h-28.5v-6.72h35.94ZM599.33,31.33h11.58v-5.7h-11.58v5.7ZM599.33,42.84h11.58v-5.76h-11.58v5.76Z" style="fill: #fff;"/>
    <path d="M650.03,3.97c-.3,1.2-.72,2.4-1.2,3.6h14.94v5.58h-7.8v2.7l-.06,1.2h9.3v5.64h-9.96c2.58,1.26,8.58,4.68,10.14,5.76l-5.1,4.56c-1.74-1.5-5.04-3.96-7.74-5.88-2.16,3.12-5.64,6.12-11.1,8.64-.96-1.44-3-3.6-4.56-4.8,6.12-2.34,9.18-5.34,10.74-8.28h-10.02v-5.64h4.08c-1.44-.96-3.42-2.1-4.62-2.64,3.12-2.88,5.4-7.26,6.6-11.76l6.36,1.32ZM646.13,13.15c-.9,1.44-1.8,2.76-2.76,3.9h5.7l.06-1.32v-2.58h-3ZM685,33.91v25.38h-7.38v-1.92h-24.9v1.98h-7.02v-25.44h39.3ZM677.62,42.9v-3.36h-24.9v3.36h24.9ZM652.73,51.6h24.9v-3.48h-24.9v3.48ZM690.16,7.45v22.86h-22.98V7.45h22.98ZM673.91,23.95h9.12v-10.2h-9.12v10.2Z" style="fill: #fff;"/>
    <path d="M710.09,2.95v10.74h5.1v6.6h-5.1v10.38l4.86-1.62,1.14,6.36-6,2.22v13.26c0,3.3-.54,5.1-2.4,6.24-1.8,1.08-4.44,1.32-8.28,1.32-.18-1.74-1.02-4.74-1.86-6.6,2.16.06,4.26.06,4.98,0,.72,0,.96-.24.96-1.02v-10.86l-5.46,1.92-1.38-6.96,6.84-2.1v-12.54h-6.06v-6.6h6.06V2.95h6.6ZM733.55,20.89c-3.12,4.38-8.04,9.12-12.42,12h27.9v6.3h-11.34v11.94h15.72v6.3h-38.76v-6.3h15.78v-11.94h-11.16v-6.3h1.2c-.78-1.38-2.64-4.08-3.84-5.34,3.96-2.22,8.22-5.64,10.86-9l6.06,2.34ZM735.83,2.77c1.08,2.16,2.28,5.04,3,7.08h13.68v10.86h-6.78v-4.74h-22.56v4.92h-6.54v-11.04h14.46c-.6-1.8-1.44-3.84-2.16-5.52l6.9-1.56ZM739.67,18.31c3.66,2.82,9.12,7.02,11.88,9.54l-4.44,4.8c-2.58-2.64-7.86-7.08-11.64-10.14l4.2-4.2Z" style="fill: #fff;"/>
    <path d="M804.04,5.83c-1.68,2.58-3.48,5.22-5.1,7.44h8.58v25.44h-18.84v3.96h23.7v6.66h-23.7v9.9h-7.44v-9.9h-23.28v-6.66h23.28v-3.96h-17.94V13.27h9.66c-1.26-2.28-3.18-5.1-4.92-7.2l6.24-2.82c2.28,2.64,5.04,6.24,6.24,8.76l-2.64,1.26h12.9c1.98-2.94,4.02-6.78,5.22-9.78l8.04,2.34ZM770.33,23.23h10.92v-4.08h-10.92v4.08ZM770.33,32.83h10.92v-4.14h-10.92v4.14ZM788.69,23.23h11.4v-4.08h-11.4v4.08ZM788.69,32.83h11.4v-4.14h-11.4v4.14Z" style="fill: #fff;"/>
    <path d="M872.08,23.59v6.96h-15.9v18.42c0,2.28.3,2.64,2.28,2.64h5.46c2.04,0,2.34-1.5,2.64-10.2,1.56,1.26,4.68,2.52,6.66,3-.72,10.8-2.52,13.92-8.64,13.92h-7.32c-6.78,0-8.52-2.28-8.52-9.3v-18.48h-9.12c-1.02,12.54-3.78,22.8-18.3,28.68-.78-1.8-2.76-4.5-4.38-5.82,12.54-4.68,14.22-12.9,14.94-22.86h-13.62v-6.96h53.82ZM866.56,7.27v6.9h-42.84v-6.9h42.84Z" style="fill: #fff;"/>
  </g>
</svg>